<mxfile host="app.diagrams.net" modified="2022-12-11T07:56:58.479Z" agent="5.0 (Windows NT 10.0; Win64; x64) AppleWebKit/537.36 (KHTML, like Gecko) Chrome/108.0.0.0 Safari/537.36" etag="K3BKZ9GIktJu3fXxxHhb" version="15.5.2" type="github">
  <diagram id="C5RBs43oDa-KdzZeNtuy" name="Page-1">
    <mxGraphModel dx="1736" dy="984" grid="1" gridSize="10" guides="1" tooltips="1" connect="1" arrows="1" fold="1" page="1" pageScale="1" pageWidth="827" pageHeight="1169" math="0" shadow="0">
      <root>
        <mxCell id="WIyWlLk6GJQsqaUBKTNV-0" />
        <mxCell id="WIyWlLk6GJQsqaUBKTNV-1" parent="WIyWlLk6GJQsqaUBKTNV-0" />
        <mxCell id="qa9qUavZ_9juywuR9Kr9-8" value="" style="edgeStyle=orthogonalEdgeStyle;rounded=0;orthogonalLoop=1;jettySize=auto;html=1;" edge="1" parent="WIyWlLk6GJQsqaUBKTNV-1" source="qa9qUavZ_9juywuR9Kr9-0" target="qa9qUavZ_9juywuR9Kr9-1">
          <mxGeometry relative="1" as="geometry" />
        </mxCell>
        <mxCell id="qa9qUavZ_9juywuR9Kr9-0" value="START" style="strokeWidth=2;html=1;shape=mxgraph.flowchart.terminator;whiteSpace=wrap;" vertex="1" parent="WIyWlLk6GJQsqaUBKTNV-1">
          <mxGeometry x="270" y="60" width="100" height="60" as="geometry" />
        </mxCell>
        <mxCell id="qa9qUavZ_9juywuR9Kr9-9" value="" style="edgeStyle=orthogonalEdgeStyle;rounded=0;orthogonalLoop=1;jettySize=auto;html=1;" edge="1" parent="WIyWlLk6GJQsqaUBKTNV-1" source="qa9qUavZ_9juywuR9Kr9-1" target="qa9qUavZ_9juywuR9Kr9-2">
          <mxGeometry relative="1" as="geometry" />
        </mxCell>
        <mxCell id="qa9qUavZ_9juywuR9Kr9-1" value="Identifikasi Masalah" style="rounded=0;whiteSpace=wrap;html=1;strokeWidth=2;" vertex="1" parent="WIyWlLk6GJQsqaUBKTNV-1">
          <mxGeometry x="260" y="150" width="120" height="60" as="geometry" />
        </mxCell>
        <mxCell id="qa9qUavZ_9juywuR9Kr9-10" value="" style="edgeStyle=orthogonalEdgeStyle;rounded=0;orthogonalLoop=1;jettySize=auto;html=1;" edge="1" parent="WIyWlLk6GJQsqaUBKTNV-1" source="qa9qUavZ_9juywuR9Kr9-2" target="qa9qUavZ_9juywuR9Kr9-3">
          <mxGeometry relative="1" as="geometry" />
        </mxCell>
        <mxCell id="qa9qUavZ_9juywuR9Kr9-2" value="Formulasi Masalah" style="rounded=0;whiteSpace=wrap;html=1;strokeWidth=2;" vertex="1" parent="WIyWlLk6GJQsqaUBKTNV-1">
          <mxGeometry x="260" y="240" width="120" height="60" as="geometry" />
        </mxCell>
        <mxCell id="qa9qUavZ_9juywuR9Kr9-11" value="" style="edgeStyle=orthogonalEdgeStyle;rounded=0;orthogonalLoop=1;jettySize=auto;html=1;" edge="1" parent="WIyWlLk6GJQsqaUBKTNV-1" source="qa9qUavZ_9juywuR9Kr9-3" target="qa9qUavZ_9juywuR9Kr9-4">
          <mxGeometry relative="1" as="geometry" />
        </mxCell>
        <mxCell id="qa9qUavZ_9juywuR9Kr9-3" value="Penentuan Kriteria dan Bobot" style="rounded=0;whiteSpace=wrap;html=1;strokeWidth=2;" vertex="1" parent="WIyWlLk6GJQsqaUBKTNV-1">
          <mxGeometry x="260" y="330" width="120" height="60" as="geometry" />
        </mxCell>
        <mxCell id="qa9qUavZ_9juywuR9Kr9-12" value="" style="edgeStyle=orthogonalEdgeStyle;rounded=0;orthogonalLoop=1;jettySize=auto;html=1;" edge="1" parent="WIyWlLk6GJQsqaUBKTNV-1" source="qa9qUavZ_9juywuR9Kr9-4" target="qa9qUavZ_9juywuR9Kr9-5">
          <mxGeometry relative="1" as="geometry" />
        </mxCell>
        <mxCell id="qa9qUavZ_9juywuR9Kr9-4" value="Penilaian Supplier" style="rounded=0;whiteSpace=wrap;html=1;strokeWidth=2;" vertex="1" parent="WIyWlLk6GJQsqaUBKTNV-1">
          <mxGeometry x="260" y="420" width="120" height="60" as="geometry" />
        </mxCell>
        <mxCell id="qa9qUavZ_9juywuR9Kr9-13" value="" style="edgeStyle=orthogonalEdgeStyle;rounded=0;orthogonalLoop=1;jettySize=auto;html=1;" edge="1" parent="WIyWlLk6GJQsqaUBKTNV-1" source="qa9qUavZ_9juywuR9Kr9-5" target="qa9qUavZ_9juywuR9Kr9-6">
          <mxGeometry relative="1" as="geometry" />
        </mxCell>
        <mxCell id="qa9qUavZ_9juywuR9Kr9-5" value="Perhitungan Nilai Total" style="rounded=0;whiteSpace=wrap;html=1;strokeWidth=2;" vertex="1" parent="WIyWlLk6GJQsqaUBKTNV-1">
          <mxGeometry x="260" y="515" width="120" height="60" as="geometry" />
        </mxCell>
        <mxCell id="qa9qUavZ_9juywuR9Kr9-14" value="" style="edgeStyle=orthogonalEdgeStyle;rounded=0;orthogonalLoop=1;jettySize=auto;html=1;" edge="1" parent="WIyWlLk6GJQsqaUBKTNV-1" source="qa9qUavZ_9juywuR9Kr9-6" target="qa9qUavZ_9juywuR9Kr9-7">
          <mxGeometry relative="1" as="geometry" />
        </mxCell>
        <mxCell id="qa9qUavZ_9juywuR9Kr9-6" value="Penentuan Supplier yang paling sesuai" style="rounded=0;whiteSpace=wrap;html=1;strokeWidth=2;" vertex="1" parent="WIyWlLk6GJQsqaUBKTNV-1">
          <mxGeometry x="260" y="610" width="120" height="60" as="geometry" />
        </mxCell>
        <mxCell id="qa9qUavZ_9juywuR9Kr9-7" value="FINISH" style="strokeWidth=2;html=1;shape=mxgraph.flowchart.terminator;whiteSpace=wrap;" vertex="1" parent="WIyWlLk6GJQsqaUBKTNV-1">
          <mxGeometry x="270" y="710" width="100" height="60" as="geometry" />
        </mxCell>
      </root>
    </mxGraphModel>
  </diagram>
</mxfile>
